<svg xmlns="http://www.w3.org/2000/svg" version="1.1" xmlns:xlink="http://www.w3.org/1999/xlink" xmlns:svgjs="http://svgjs.dev/svgjs" width="100%" height="100%" viewBox="0 0 1000 600"><rect width="1000" height="600" x="0" y="0" fill="#ffff"/><g><circle r="166.66666666666666" cx="410.8671213785807" cy="433.0892617371429" fill="#E2V144" transform="matrix(0.5118748039541996,0,0,0.5118748039541996,0,78.31252874296995)"/><path d="M427.0609329851552 508.0892884838223Q404.4006524460713 508.0892884838223 387.7646903917682 497.9474312181592Q371.15636282592743 487.80557395249593 362.39622998337916 470.78272905972074Q353.6637316292931 453.7875186554078 353.6637316292931 433.2827282163831L353.6637316292931 433.2827282163831Q353.6637316292931 411.58965477347954 363.1147266833989 394.48390641531745Q372.5657217375046 377.3781580571553 389.67147009566673 367.7337215838135Q406.7772184538289 358.0892851104717 428.47029189673236 358.0892851104717L428.47029189673236 358.0892851104717Q438.2252663239234 358.0892851104717 446.6814197933864 360.16187174514397Q455.13757326284946 362.26209286827856 460.69210544377125 364.94263824912144Q466.2742721131553 367.62318362996433 468.07051386320467 369.41942538001365L468.07051386320467 369.41942538001365L458.31553943601364 389.3162570728678Q446.18399900106505 378.5664410610341 426.67405014668304 378.5664410610341L426.67405014668304 378.5664410610341Q412.9397093809212 378.5664410610341 401.8030105306153 385.33689073429696Q390.66631168030943 392.10734040755983 384.2827448455187 404.62576368098064Q377.9268124991903 417.17182144286363 377.9268124991903 433.69724554331754L377.9268124991903 433.69724554331754Q377.9268124991903 448.8133107321943 383.5918826339613 461.13829258637895Q389.2569527687323 473.4909089290259 400.2002101998021 480.6482414407609Q411.14346763087184 487.80557395249593 426.2871673082109 487.80557395249593L426.2871673082109 487.80557395249593Q443.7797985048452 487.80557395249593 460.11178118606296 477.8571581060689L460.11178118606296 477.8571581060689L466.66115495162745 496.75914821428034Q462.2949057745845 500.7385145528512 450.66078613195725 504.41390151833673Q438.9990320008677 508.0892884838223 427.0609329851552 508.0892884838223L427.0609329851552 508.0892884838223Z " fill="white" transform="matrix(0.5118748039541996,0,0,0.5118748039541996,0,78.31252874296995)"/><path d="M727.9378289831669 507.53372604525714Q707.2307588080236 507.53372604525714 692.0287389965159 498.26604951565025Q676.851971709612 488.99837298604336 668.8469214101968 473.44281783008205Q660.8671236353854 457.91251519872446 660.8671236353854 439.17514194268006L660.8671236353854 439.17514194268006Q660.8671236353854 419.35191012867085 669.5034870498964 403.72059739889795Q678.1398504644075 388.08928466912505 693.7711631941803 379.27615358238717Q709.4024759239533 370.46302249564934 729.2257077379625 370.46302249564934L729.2257077379625 370.46302249564934Q738.1398489231157 370.46302249564934 745.8671214518887 372.35696184093683Q753.5943939806617 374.27615371082817 758.6701514260322 376.72564859740004Q763.7711613960066 379.17514348397185 765.4125754952557 380.816557583221L765.4125754952557 380.816557583221L756.4984343101025 398.9983752979811Q745.4125760090197 389.1751432270899 727.5842936387133 389.1751432270899L727.5842936387133 389.1751432270899Q715.0337889106081 389.1751432270899 704.8570214952632 395.3620117550291Q694.6802540799184 401.54888028296824 688.8469208964328 412.9882739285048Q683.0388402375512 424.45292009864517 683.0388402375512 439.5539298117376L683.0388402375512 439.5539298117376Q683.0388402375512 453.36706077003447 688.215607781337 464.62968674334417Q693.3923753251229 475.9175652412577 703.3923750682409 482.45796911365056Q713.392374811359 488.99837298604336 727.2307582942597 488.99837298604336L727.2307582942597 488.99837298604336Q743.2156063684862 488.99837298604336 758.1398484093518 479.9074641286634L758.1398484093518 479.9074641286634L764.1246967404603 497.18019095768545Q760.1347978530546 500.8165545006375 749.5034849948407 504.17514027294726Q738.846919612023 507.53372604525714 727.9378289831669 507.53372604525714L727.9378289831669 507.53372604525714ZM822.8620689689768 508.08928158654146Q809.9580288964179 508.08928158654146 799.9580291532999 502.2812009276598Q789.9580294101819 496.44786774417423 784.5034840957538 486.44786800105624Q779.0489387813258 476.4478682579382 779.0489387813258 464.27615139889053L779.0489387813258 464.27615139889053Q779.0489387813258 452.2812022120696 784.4024739973385 442.28120246895156Q789.7560092133511 432.2812027258335 799.7560089564693 426.44786954234803Q809.7560086995873 420.63978888346634 822.8620689689768 420.63978888346634L822.8620689689768 420.63978888346634Q835.9428767137625 420.63978888346634 845.8671188830691 426.44786954234803Q855.7661085277717 432.2812027258335 861.1196437437844 442.28120246895156Q866.498431484401 452.2812022120696 866.498431484401 464.27615139889053L866.498431484401 464.27615139889053Q866.498431484401 476.4478682579382 861.043886169973 486.44786800105624Q855.589340855545 496.44786774417423 845.6650986862384 502.2812009276598Q835.7661090415357 508.08928158654146 822.8620689689768 508.08928158654146L822.8620689689768 508.08928158654146ZM823.3923719856573 492.0791809877111Q833.9479272700597 492.0791809877111 840.0337856995835 484.2761508851265Q846.1196441291073 476.4478682579382 846.1196441291073 464.62968674334417L846.1196441291073 464.62968674334417Q846.1196441291073 452.8115052287501 839.5792402567146 444.7306973555234Q833.0388363843217 436.62463695769287 822.3065134276925 436.62463695769287L822.3065134276925 436.62463695769287Q811.9529783401208 436.62463695769287 805.6650997137663 444.6296872571081Q799.4024736120156 452.6347375565233 799.4024736120156 464.62968674334417L799.4024736120156 464.62968674334417Q799.4024736120156 476.27110058571134 806.1196451566352 484.1751407867112Q812.8620692258588 492.0791809877111 823.3923719856573 492.0791809877111L823.3923719856573 492.0791809877111ZM887.4075218563751 506.27109981506544L887.4075218563751 422.811505999396L906.6751981291 422.811505999396L906.8519658013267 438.08928338471526Q910.3115616720519 430.46302095435755 917.7610564301827 425.53877865661Q925.2105511883136 420.63978888346634 935.2105509314316 420.63978888346634L935.2105509314316 420.63978888346634Q948.1398435285944 420.63978888346634 955.0337827454409 425.993324099479Q961.9529744868913 431.37211184009556 964.3014592750478 440.9933237141561Q966.6751965878082 450.63978811282044 966.6751965878082 466.0943331703665L966.6751965878082 466.0943331703665L966.6751965878082 506.27109981506544L947.0287324460257 506.27109981506544L947.0287324460257 466.62463618704703Q947.0287324460257 450.8165557850473 943.9479244443581 443.8216064697854Q940.8671164426904 436.82665715452356 931.220652044026 436.82665715452356L931.220652044026 436.82665715452356Q925.7661067295979 436.82665715452356 920.1347937429431 440.1852429268334Q914.5034807562884 443.5438286991432 910.7661071149209 449.9074648993093Q907.0287334735536 456.2711010994753 907.0287334735536 464.806454415571L907.0287334735536 464.806454415571L907.0287334735536 506.27109981506544L887.4075218563751 506.27109981506544ZM1022.6852961591106 506.27109981506544L978.6701457746291 422.811505999396L1001.0438825736254 422.811505999396L1019.0489326161586 460.46302018371165L1024.8570132750406 475.53877737220023L1030.665093933922 460.46302018371165L1048.4933763042286 422.811505999396L1070.3115575619404 422.811505999396L1026.4984273742893 506.27109981506544L1022.6852961591106 506.27109981506544ZM1120.134788605304 508.08928158654146Q1105.2105465644381 508.08928158654146 1095.2105468213203 502.18019082924445Q1085.2105470782021 496.27110007194744 1080.4883249772856 486.3721104272447Q1075.7661028763687 476.4478682579382 1075.7661028763687 464.62968674334417L1075.7661028763687 464.62968674334417Q1075.7661028763687 451.3721113263316 1081.3216582892119 441.3721115832136Q1086.8519611774514 431.37211184009556 1096.6751932483426 425.993324099479Q1106.4984253192338 420.63978888346634 1118.8469098505084 420.63978888346634L1118.8469098505084 420.63978888346634Q1138.1398386478372 420.63978888346634 1147.4832727512553 431.2711017416802Q1156.8519593792776 441.9024145998941 1156.8519593792776 461.17009087261897L1156.8519593792776 461.17009087261897Q1156.8519593792776 466.0943331703665 1156.321656362597 471.3721108125677L1156.321656362597 471.3721108125677L1096.321657903889 471.3721108125677Q1098.3166073475918 482.45796911365056 1104.2256981048886 487.35695888679425Q1110.1347888621858 492.2812011845417 1120.6650916219842 492.2812011845417L1120.6650916219842 492.2812011845417Q1129.4024651349105 492.2812011845417 1135.0337781215658 490.8165547575194Q1140.6650911082202 489.35190833049705 1145.4125657337413 486.82665587011377L1145.4125657337413 486.82665587011377L1151.3974140648497 500.8165545006375Q1146.8519596361598 503.7205948300783 1139.0489295335751 505.9175644706118Q1131.2206469063867 508.08928158654146 1120.134788605304 508.08928158654146L1120.134788605304 508.08928158654146ZM1096.321657903889 457.7357475264976L1137.7610507787795 457.7357475264976Q1137.9378184510065 446.4478690285841 1132.862061005636 441.82665702608256Q1127.7610510356617 437.18019249897725 1118.3166068338278 437.18019249897725L1118.3166068338278 437.18019249897725Q1099.2256982333297 437.18019249897725 1096.321657903889 457.7357475264976L1096.321657903889 457.7357475264976ZM1176.851958865514 506.27109981506544L1176.851958865514 422.811505999396L1196.498423007296 422.811505999396L1196.498423007296 439.17514194268006Q1199.4024633367371 430.8165562988112 1205.9428672091299 425.71554632883687Q1212.4832710815226 420.63978888346634 1220.8671092499953 420.63978888346634L1220.8671092499953 420.63978888346634Q1226.6751899088772 420.63978888346634 1228.846907024807 421.7256474414312L1228.846907024807 421.7256474414312L1226.1196343675929 441.5488792554404Q1224.5034727929474 440.4630206974756 1219.0489274785195 440.4630206974756L1219.0489274785195 440.4630206974756Q1210.4883216378198 440.4630206974756 1203.4933723225581 445.9175660119036Q1196.498423007296 451.3721113263316 1196.498423007296 463.3670605131525L1196.498423007296 463.3670605131525L1196.498423007296 506.27109981506544L1176.851958865514 506.27109981506544ZM1271.3974109822661 508.08928158654146Q1262.6852899939436 508.08928158654146 1253.3166033659213 505.8165543721965Q1243.947916737899 503.54382715785147 1239.9580178504934 500.4630191561838L1239.9580178504934 500.4630191561838L1246.4984217228862 485.00847409863775Q1257.4075123517423 492.6347365289954 1271.3974109822661 492.6347365289954L1271.3974109822661 492.6347365289954Q1285.4125621373937 492.6347365289954 1285.4125621373937 484.4529185573534L1285.4125621373937 484.4529185573534Q1285.4125621373937 480.8165550144014 1282.4832692833488 478.8216055706985Q1279.5792289539081 476.8266561269957 1272.129734195777 474.0993834697817L1272.129734195777 474.0993834697817L1265.210542454327 471.5488784847945Q1254.3014518254708 467.18019172833135 1247.9378156253047 461.0943332988075Q1241.574179425139 455.00847486928365 1241.574179425139 445.0084751261656L1241.574179425139 445.0084751261656Q1241.574179425139 433.5438289560252 1250.5893307087072 427.0791826574439Q1259.5792294676721 420.63978888346634 1274.6802391807641 420.63978888346634L1274.6802391807641 420.63978888346634Q1282.1297339388952 420.63978888346634 1289.301450926384 422.2812029827155Q1296.4984204384764 423.89736455736085 1300.3115516536554 426.44786954234803L1300.3115516536554 426.44786954234803L1293.215592239978 442.0791822721209Q1290.8671074518215 439.7306974839644 1285.665087383432 437.9882732862999Q1280.488319839646 436.27110161323924 1274.1246836394798 436.27110161323924L1274.1246836394798 436.27110161323924Q1261.2206435669214 436.27110161323924 1261.2206435669214 444.0993842404276L1261.2206435669214 444.0993842404276Q1261.2206435669214 448.44281847228694 1264.6802394376464 450.7155456866319Q1268.1398353083714 452.98827290097694 1275.942865410956 455.71554555819097L1275.942865410956 455.71554555819097Q1276.675188624467 455.91756575502166 1281.574178397611 457.7357475264976L1281.574178397611 457.7357475264976Q1293.215592239978 462.28120195518767 1298.8469052266328 468.08928261406936Q1304.5034707378913 473.897363272951 1304.5034707378913 482.98827213033104L1304.5034707378913 482.98827213033104Q1304.5034707378913 495.36200918620943 1295.1347841098695 501.72564538637545Q1285.7660974818473 508.08928158654146 1271.3974109822661 508.08928158654146L1271.3974109822661 508.08928158654146ZM1361.776196539386 508.08928158654146Q1350.4883180414722 508.08928158654146 1340.9428637412234 502.7357463705288Q1331.3974094409741 497.35695862991224 1325.665086355904 487.45796898520956Q1319.9580157954379 477.53372681590304 1319.9580157954379 464.27615139889053L1319.9580157954379 464.27615139889053Q1319.9580157954379 451.170091129501 1324.9580156669967 441.3721115832136Q1329.9580155385556 431.5488795123224 1339.2256920681625 426.09433419789434Q1348.4933685977694 420.63978888346634 1361.0438733258748 420.63978888346634L1361.0438733258748 420.63978888346634Q1368.3166004117788 420.63978888346634 1374.6802366119446 423.1902938684535Q1381.0438728121107 425.71554632883687 1385.4125595685737 429.4529199702042Q1389.7559938004333 433.1902936115715 1391.2206402274555 436.82665715452356L1391.2206402274555 436.82665715452356L1391.574175571909 422.811505999396L1410.3115488279536 422.811505999396L1410.3115488279536 506.27109981506544L1391.7761957687399 506.27109981506544L1391.3974078996825 491.5488779710306Q1388.3165998980148 498.08928184342346 1380.1347819263729 503.08928171498246Q1371.9529639547309 508.08928158654146 1361.776196539386 508.08928158654146L1361.776196539386 508.08928158654146ZM1365.0337722132804 491.7256456432574Q1375.412559825456 491.7256456432574 1382.4832667145292 484.55392865576874Q1389.5792261282063 477.3569591436762 1389.5792261282063 465.715545301309L1389.5792261282063 465.715545301309L1389.5792261282063 464.4529190711173Q1389.5792261282063 456.624636443929 1386.321650454312 450.4630204405936Q1383.0388222558136 444.2761519126544 1377.4075092691587 440.81655604192923Q1371.7761962825039 437.35696017120404 1365.0337722132804 437.35696017120404L1365.0337722132804 437.35696017120404Q1353.392358370913 437.35696017120404 1347.0287221707472 444.9074650277503Q1340.665085970581 452.45796988429646 1340.665085970581 464.4529190711173L1340.665085970581 464.4529190711173Q1340.665085970581 476.624635930165 1346.9529645969355 484.1751407867112Q1353.2155906986864 491.7256456432574 1365.0337722132804 491.7256456432574L1365.0337722132804 491.7256456432574ZM1378.6701354993502 407.35696094184993Q1373.2155901849223 407.35696094184993 1370.2105397570663 405.71554684260076Q1367.230741853814 404.0993852679554 1364.301448999769 400.9933247416839L1364.301448999769 400.9933247416839Q1362.1297318838392 398.44281975669674 1359.9580147679098 397.1801935265051Q1357.7610451273763 395.9175672963134 1354.5034694534816 395.9175672963134L1354.5034694534816 395.9175672963134Q1351.39740892721 395.9175672963134 1348.2155908271275 398.44281975669674Q1345.033772727044 400.9933247416839 1342.6852879388875 406.27110238388514L1342.6852879388875 406.27110238388514L1334.3014497704148 393.54382998355305Q1335.942863869664 387.9125169968982 1341.11963141345 383.3670625682082Q1346.3216514818396 378.8216081395182 1354.1246815844243 378.8216081395182L1354.1246815844243 378.8216081395182Q1359.2256915543985 378.8216081395182 1362.4832672282932 380.46302223876734Q1365.7660954267913 382.0791838134127 1368.6701357562324 385.1852443396842L1368.6701357562324 385.1852443396842Q1371.2206407412195 387.9125169968982 1373.4933679555647 389.1751432270899Q1375.7660951699095 390.4630219818854 1379.048923368408 390.4630219818854L1379.048923368408 390.4630219818854Q1382.3064990423022 390.4630219818854 1385.6650848146123 387.8115068984829Q1389.0489231115257 385.1852443396842 1391.3974078996825 379.7306990252562L1391.3974078996825 379.7306990252562L1399.755993543551 392.63473909781504Q1399.048922854644 395.5387794272559 1396.0438724267879 398.9983752979811Q1393.0388219989318 402.45797116870625 1388.392357471826 404.9074660552781Q1383.771145469325 407.35696094184993 1378.6701354993502 407.35696094184993L1378.6701354993502 407.35696094184993ZM1475.5893249288629 508.08928158654146Q1462.685284856304 508.08928158654146 1452.6852851131862 502.2812009276598Q1442.685285370068 496.44786774417423 1437.2307400556401 486.44786800105624Q1431.7761947412118 476.4478682579382 1431.7761947412118 464.27615139889053L1431.7761947412118 464.27615139889053Q1431.7761947412118 452.2812022120696 1437.1297299572248 442.28120246895156Q1442.4832651732372 432.2812027258335 1452.4832649163554 426.44786954234803Q1462.4832646594737 420.63978888346634 1475.5893249288629 420.63978888346634L1475.5893249288629 420.63978888346634Q1488.6701326736488 420.63978888346634 1498.5943748429554 426.44786954234803Q1508.4933644876578 432.2812027258335 1513.8468997036707 442.28120246895156Q1519.225687444287 452.2812022120696 1519.225687444287 464.27615139889053L1519.225687444287 464.27615139889053Q1519.225687444287 476.4478682579382 1513.771142129859 486.44786800105624Q1508.3165968154312 496.44786774417423 1498.3923546461247 502.2812009276598Q1488.4933650014218 508.08928158654146 1475.5893249288629 508.08928158654146L1475.5893249288629 508.08928158654146ZM1476.1196279455435 492.0791809877111Q1486.675183229946 492.0791809877111 1492.7610416594698 484.2761508851265Q1498.8469000889936 476.4478682579382 1498.8469000889936 464.62968674334417L1498.8469000889936 464.62968674334417Q1498.8469000889936 452.8115052287501 1492.3064962166009 444.7306973555234Q1485.7660923442077 436.62463695769287 1475.0337693875786 436.62463695769287L1475.0337693875786 436.62463695769287Q1464.6802343000068 436.62463695769287 1458.3923556736527 444.6296872571081Q1452.1297295719019 452.6347375565233 1452.1297295719019 464.62968674334417L1452.1297295719019 464.62968674334417Q1452.1297295719019 476.27110058571134 1458.8469011165216 484.1751407867112Q1465.589325185745 492.0791809877111 1476.1196279455435 492.0791809877111L1476.1196279455435 492.0791809877111ZM1562.306494418427 508.08928158654146Q1554.6802319880694 508.08928158654146 1546.851949360881 506.1700897166502Q1539.0489192582963 504.27615037136263 1533.771141616095 499.7306959426726L1533.771141616095 499.7306959426726L1541.952959587737 480.99332268662823Q1545.2105352616318 484.80645390180706 1549.3014442474528 486.7256457716984Q1553.3923532332738 488.64483764158973 1559.402454088986 488.64483764158973L1559.402454088986 488.64483764158973Q1565.0337670756408 488.64483764158973 1568.4933629463662 486.6246356732831Q1571.9529588170913 484.6296862295802 1573.6701304901521 479.35190858737906Q1575.4125546878167 474.0993834697817 1575.4125546878167 464.27615139889053L1575.4125546878167 464.27615139889053L1575.4125546878167 372.634739611579L1595.5893218462793 372.634739611579L1595.5893218462793 469.351908844261Q1595.5893218462793 489.7306961995546 1586.397402890484 498.8973626307461Q1577.2307364592925 508.08928158654146 1562.306494418427 508.08928158654146L1562.306494418427 508.08928158654146ZM1660.867097947189 508.08928158654146Q1649.5792194492751 508.08928158654146 1640.0337651490263 502.7357463705288Q1630.488310848777 497.35695862991224 1624.7559877637073 487.45796898520956Q1619.0489172032408 477.53372681590304 1619.0489172032408 464.27615139889053L1619.0489172032408 464.27615139889053Q1619.0489172032408 451.170091129501 1624.0489170747996 441.3721115832136Q1629.0489169463585 431.5488795123224 1638.3165934759654 426.09433419789434Q1647.5842700055723 420.63978888346634 1660.1347747336777 420.63978888346634L1660.1347747336777 420.63978888346634Q1667.4075018195817 420.63978888346634 1673.7711380197475 423.1902938684535Q1680.1347742199137 425.71554632883687 1684.5034609763766 429.4529199702042Q1688.8468952082362 433.1902936115715 1690.3115416352584 436.82665715452356L1690.3115416352584 436.82665715452356L1690.665076979712 422.811505999396L1709.4024502357565 422.811505999396L1709.4024502357565 506.27109981506544L1690.8670971765428 506.27109981506544L1690.4883093074855 491.5488779710306Q1687.4075013058177 498.08928184342346 1679.2256833341758 503.08928171498246Q1671.0438653625338 508.08928158654146 1660.867097947189 508.08928158654146L1660.867097947189 508.08928158654146ZM1664.1246736210833 491.7256456432574Q1674.5034612332588 491.7256456432574 1681.5741681223321 484.55392865576874Q1688.6701275360092 477.3569591436762 1688.6701275360092 465.715545301309L1688.6701275360092 465.715545301309L1688.6701275360092 464.4529190711173Q1688.6701275360092 456.624636443929 1685.412551862115 450.4630204405936Q1682.1297236636165 444.2761519126544 1676.4984106769616 440.81655604192923Q1670.8670976903068 437.35696017120404 1664.1246736210833 437.35696017120404L1664.1246736210833 437.35696017120404Q1652.4832597787158 437.35696017120404 1646.11962357855 444.9074650277503Q1639.755987378384 452.45796988429646 1639.755987378384 464.4529190711173L1639.755987378384 464.4529190711173Q1639.755987378384 476.624635930165 1646.043866004739 484.1751407867112Q1652.3064921064893 491.7256456432574 1664.1246736210833 491.7256456432574L1664.1246736210833 491.7256456432574ZM1665.7660877203325 407.1801932696231L1652.4832597787158 399.7306985114923L1680.3115418921407 358.08928543977095L1697.5842687211625 369.1751437408538L1665.7660877203325 407.1801932696231Z " fill="&#9;#000000" transform="matrix(0.5118748039541996,0,0,0.5118748039541996,0,78.31252874296995)"/></g></svg>