<svg xmlns="http://www.w3.org/2000/svg" version="1.1" xmlns:xlink="http://www.w3.org/1999/xlink" xmlns:svgjs="http://svgjs.dev/svgjs" width="100%" height="100%" viewBox="0 0 1000 600"><rect width="1000" height="600" x="0" y="0" fill="#ffffff"/><g><circle r="166.66666666666666" cx="261.11110941569007" cy="283.33332708396176" fill="#000000" transform="matrix(1.3235293642459873,0,0,1.3235293642459875,0,-74.99999387454045)"/><path d="M272.9251986276181 358.3333423165018L272.9251986276181 358.3333423165018Q254.0744691545799 358.3333423165018 239.56948036921918 349.3252838049583Q225.06449158385848 340.3172252934149 216.97738474122684 323.6249762943887Q208.89027789859517 306.961507035016 208.89027789859517 283.96649505187474L208.89027789859517 283.96649505187474Q208.89027789859517 261.77731577903126 217.06372396018733 244.68215042485616Q225.26594976143295 227.58698507068107 240.28897386055652 217.94577228676076Q255.3119979596801 208.33333924249393 275.40025623781855 208.33333924249393L275.40025623781855 208.33333924249393Q285.76096251307615 208.33333924249393 294.25098571085675 210.2903615389315Q302.76978864829084 212.24738383536905 310.22374121854557 215.78729181274872L310.22374121854557 215.78729181274872L304.2087756309654 232.364421853161Q297.79089368823645 229.25620997058365 291.056434609319 227.3855268931066Q284.32197553040146 225.51484381562955 275.19879806024403 225.51484381562955L275.19879806024403 225.51484381562955Q261.93133807998356 225.51484381562955 251.48429258576547 232.364421853161Q241.00846735189387 239.18522015103892 234.99350176431372 252.04976377615048Q228.9785361767336 264.88552766160853 228.9785361767336 283.1318826019234L228.9785361767336 283.1318826019234Q228.9785361767336 300.54362509228696 234.90716254535326 313.5808471553195Q240.8070091743194 326.6468489580055 251.25405466853752 333.89934335068585Q261.72987990240915 341.1518377433662 275.19879806024403 341.1518377433662L275.19879806024403 341.1518377433662Q285.3580461579272 341.1518377433662 292.81199872818206 338.64800039351223Q300.2659512984369 336.1729427833118 307.3169875135428 332.2301184507832L307.3169875135428 332.2301184507832L313.33195310112296 348.605790313621Q305.6477626136401 352.75007282372405 295.8050916521454 355.5417075701129Q285.9624206906507 358.3333423165018 272.9251986276181 358.3333423165018Z " fill="white" transform="matrix(1.3235293642459873,0,0,1.3235293642459875,0,-74.99999387454045)"/><path d="M586.1111194305897 358.3333494152371L586.1111194305897 358.3333494152371Q555.9243955276318 358.3333494152371 533.5177551048175 335.92670899242296Q511.11111468200346 313.52006856960884 511.11111468200346 283.33334466665093L511.11111468200346 283.33334466665093Q511.11111468200346 248.63417234520966 531.1837300607745 228.4059552968358Q551.4119471091483 208.33333991806484 586.1111194305897 208.33333991806484L586.1111194305897 208.33333991806484Q615.2086316463274 208.33333991806484 638.237678747553 230.73998034087896Q661.1111241791757 253.14662076369302 661.1111241791757 283.33334466665093L661.1111241791757 283.33334466665093Q661.1111241791757 316.9433053008721 639.9492971131847 337.63832735805454Q618.6318683775905 358.3333494152371 586.1111194305897 358.3333494152371Z " fill="black" transform="matrix(1.3235293642459873,0,0,1.3235293642459875,0,-74.99999387454045)"/></g></svg>